<?xml version="1.0" encoding="utf-8"?>
<!-- Generator: Adobe Illustrator 27.9.0, SVG Export Plug-In . SVG Version: 6.00 Build 0)  -->
<svg version="1.1" id="Слой_1" xmlns:xodm="http://www.corel.com/coreldraw/odm/2003"
	 xmlns="http://www.w3.org/2000/svg" xmlns:xlink="http://www.w3.org/1999/xlink" x="0px" y="0px" viewBox="0 0 2184.9 1016.6"
	 style="enable-background:new 0 0 2184.9 1016.6;" xml:space="preserve">
<style type="text/css">
	.st0{fill-rule:evenodd;clip-rule:evenodd;fill:#FFD000;stroke:#000000;stroke-miterlimit:10;}
	.st1{fill-rule:evenodd;clip-rule:evenodd;fill:#FFFFFF;stroke:#000000;stroke-miterlimit:10;}
</style>
<g id="Слой_x0020_1">
	<path class="st0" d="M937.9,7.3c2.6,1,5.2,2.2,7.7,3.5c2.9,1.5,5.7,3.2,8.5,5c2.9,1.9,5.8,3.9,8.6,6.1c2.8,2.1,5.5,4.4,8.1,6.8
		c10.2,9.2,18.6,20.3,24.6,32.7c6.1,12.5,9.9,25.9,11.2,39.8c1.2,13.8-0.1,27.8-3.9,41.2c-3.8,13.3-10,25.8-18.4,36.7
		c-5.8,7.6-12.8,14.3-20.6,19.7c-8.6,6-17.8,10.9-27.5,14.6c-9.7,3.7-19.7,6.3-30,7.5c-9.3,1.2-18.8,0.8-28-1
		c-11.5-2.3-22.6-6.3-32.9-11.9c-10.1-5.5-19.4-12.5-27.3-20.9c-8-8.3-14.6-17.9-19.6-28.2c-5.1-10.6-8.6-21.8-10.4-33.4
		c-1.2-7.7-1.4-15.5-0.7-23.3c0.8-8.2,2.4-16.4,4.9-24.3c2.5-8,5.8-15.7,9.9-23.1c3.9-7.1,8.7-13.8,14.1-19.8
		c3.4-3.8,7.1-7.2,11.2-10.3c4.9-3.6,9.9-7,15.2-10c5.2-3,10.7-5.8,16.2-8.2c4.7-2,9.5-3.6,14.5-4.6c4.8-1,9.7-1.6,14.7-1.7
		c5.9-0.1,11.7,0,17.6,0.5c5.9,0.5,11.8,1.3,17.6,2.5C928.1,4,933.1,5.5,937.9,7.3L937.9,7.3z"/>
	<path class="st1" d="M325.9,307.3c14.5,36.4,29.1,72.7,43.6,109.1c15,37.6,30.1,75.2,45.1,112.8c13.5,33.7,27,67.4,40.4,101
		c9,22.5,18,45,27,67.4c6.9,17.3,13.9,34.6,20.8,52c6.4,16.1,12.8,32.2,19.2,48.3c5.4,13.5,10.7,27,16.1,40.5
		c2.3,5.8,4.5,11.5,6.7,17.3l10.6,27.6l24.9-73c7.7-22.5,15.4-44.9,23.2-67.3c12.2-35,24.5-70,36.8-105
		c12.4-35.3,24.9-70.6,37.4-105.8c4.3-12,8.6-24,13.2-35.9c1-2.7,2.1-5.5,3.1-8.3c1.9-5.3,3.8-10.6,5.7-15.9
		c2.2-6.2,4.5-12.5,6.7-18.7c2.3-6.5,4.6-13,6.9-19.5c2.5-7,5-14,7.5-20.9c2.8-7.7,5.5-15.4,8.3-23.1c2.6-7.3,5.2-14.5,7.9-21.8
		c2-5.5,4-11,6-16.4l12.6-34l108.3-0.7c22.5-0.2,45.1-0.3,67.6-0.4c8.2,0,16.4,0.1,24.6,0.4c4.1,0.2,8.2,0.6,12.3,1.2
		c0.7,0.1,1.3,0.5,1.6,1.1c0.3,0.6,0.4,1.3,0.1,1.9c-1.8,4.5-3.5,9-5.1,13.5c-16.8,45.2-33.6,90.4-50.3,135.6
		c-15.3,41.1-30.5,82.2-45.8,123.4c-7.4,20-14.8,40-22.2,60c-27.8,75.5-55.6,151-83.5,226.4c-7.5,20.2-15.4,40.3-23.7,60.3
		c-4.3,10.3-9.4,20.2-15.3,29.7c-4.4,7-10,13.1-16.7,18c-4.8,3.5-9.9,6.5-15.2,9.1c-4.8,2.3-9.9,4.1-15.1,5.2c-5.9,1.3-12,2-18,2.2
		c-8.3,0.2-16.6,0.1-24.9-0.4c-13.1-0.7-26.2-1.2-39.3-1.4c-17.5-0.3-35.1-0.5-52.6-0.5c-17,0-33.9,0.1-50.9,0.3
		c-8.3,0.1-16.6,0.6-24.9,1.4c-6.5,0.7-13.1,0.8-19.7,0.3c-5.8-0.4-11.5-1.6-17-3.4c-5.4-1.8-10.5-4.3-15.2-7.5
		c-5.2-3.5-10-7.4-14.4-11.8c-4.1-4.1-7.7-8.5-11-13.2c-3.5-5.1-6.5-10.4-9.2-15.9c-4.5-9.4-8.8-18.9-12.9-28.6
		c-12.5-29.6-24.9-59.2-37.3-88.8c-6-14.3-12-28.7-18-43c-4.3-10.2-8.6-20.4-12.8-30.6c-5.1-12.1-10.2-24.2-15.3-36.4
		c-10.2-24.3-20.4-48.6-30.6-72.8c-4.7-11.3-9.5-22.6-14.2-34c-6.2-14.8-12.4-29.6-18.6-44.4c-6.5-15.6-13.1-31.2-19.6-46.8
		c-5.9-14-11.7-28.1-17.6-42.1c-24.1-57.6-48.3-115.2-72.4-172.9c-15.4-36.9-30.9-73.8-46.4-110.6c-10.5-25-21-50-31.4-75
		c-5.5-13-10.9-26.1-16.4-39.1L0,47.1l111,0.1l111,0.1L325.9,307.3L325.9,307.3z"/>
	<path class="st1" d="M1658.2,534.8c5.2,1.4,9.9,4.1,13.9,7.7c4.1,3.7,7.4,8.3,9.6,13.4c2.2,5.1,3.4,10.6,3.3,16.2
		c0,5.4-1.3,10.7-3.7,15.6c-1.6,3.2-3.6,6.3-5.9,9.1c-2.1,2.6-4.5,4.9-7.3,6.8c-2.7,1.9-5.7,3.4-8.9,4.5c-3.4,1.1-6.9,1.9-10.5,2.3
		c-5.4,0.5-10.8,0.1-15.9-1.4c-5-1.4-9.7-3.9-13.7-7.2c-4.1-3.3-7.4-7.5-9.8-12.2c-2.5-4.9-4.1-10.1-4.7-15.6
		c-0.4-3.7-0.2-7.4,0.6-11c0.8-3.7,2.2-7.2,4.1-10.4c2-3.3,4.4-6.4,7.3-8.9c3-2.7,6.3-5,9.9-6.8c2.6-1.3,5.2-2.4,7.9-3.3
		c2.2-0.7,4.4-1.2,6.7-1.3c2.4-0.2,4.8,0,7.2,0.4C1651.7,533.2,1655,533.9,1658.2,534.8L1658.2,534.8z"/>
	<path class="st1" d="M2114,602.7v36.8h35.4h35.4v25.5v25.5h-35.4H2114v73.3c0,20.7,0.2,41.5,0.5,62.2c0.1,5.8,1.4,11.4,3.9,16.7
		c1.9,4,5.7,6.8,10.1,7.5c8.9,1.3,17.9,1.9,26.8,1.9h29.6v29.8v29.8l-17.7,0.6c-13.8,0.4-27.6,0.7-41.4,0.6
		c-7.8,0-15.5-0.6-23.2-1.9c-5.5-0.9-10.9-2.6-15.9-5c-5.1-2.4-9.8-5.5-14-9.2c-5.7-5-10.5-11-14.2-17.6c-3.8-6.8-6.5-14.1-8-21.7
		c-2.1-10.9-3.3-22.1-3.6-33.2c-0.4-20.2-0.5-40.5-0.3-60.7l0.9-73l-20.6,0l-20.6,0v-25.5v-25.5h19.8h19.8v-36.8v-36.8h34h34
		L2114,602.7L2114,602.7z"/>
	<path class="st1" d="M1158.5,637.3c13.8,4.6,26.7,11.4,38.4,20c11.3,8.3,21,18.5,28.8,30.2c8,12,14,25.3,17.7,39.3
		c4,15.2,6,30.8,6,46.5c0,15-1.7,29.9-5.1,44.5c-3.1,13.3-8.1,26-14.9,37.8c-6.6,11.3-14.9,21.5-24.6,30.3
		c-10.1,9-21.4,16.5-33.5,22.3c-4.5,2.1-9,4.1-13.6,6c-3.1,1.3-6.3,2.3-9.6,3c-3.5,0.8-7.1,1.2-10.7,1.5c-6.1,0.4-12.2,0.6-18.4,0.8
		c-7.9,0.2-15.8,0.1-23.7-0.3c-5.9-0.3-11.7-1.2-17.4-2.7c-5.4-1.4-10.6-3.3-15.6-5.8c-6.1-3.1-12-6.5-17.7-10.3l-16.3-10.7V953
		v63.6h-32.6h-32.6V828.1V639.6h32.6h32.6v14.7v14.7l10.6-10c3.3-3.1,6.8-6.1,10.3-9c2.9-2.3,5.9-4.4,9.1-6.2
		c3.1-1.8,6.3-3.3,9.7-4.6c3.9-1.5,7.9-2.8,12-3.9c5.7-1.6,11.5-2.6,17.4-3c7.4-0.6,14.7-0.7,22.1-0.6c7.4,0.2,14.7,0.7,22,1.6
		C1147.3,634.1,1153,635.4,1158.5,637.3L1158.5,637.3z M1080.6,694.4c-4,1.3-8,2.9-11.8,4.6c-3.3,1.5-6.4,3.2-9.4,5.2
		c-2.7,1.9-5.3,4-7.7,6.3c-2.4,2.4-4.7,5.1-6.6,7.9c-2.7,3.8-5,7.8-7,11.9c-1.8,3.7-3.2,7.7-4.2,11.7c-1.1,4.8-1.8,9.7-2.1,14.6
		c-0.4,7.2-0.6,14.4-0.6,21.6c0,5.8,0.1,11.6,0.3,17.4c0.1,3.4,0.4,6.8,1,10.2c0.4,2.7,1.1,5.4,2.1,8c1.1,3.1,2.4,6.1,3.9,9
		c1.8,3.6,3.9,7,6.4,10.2c2.5,3.2,5.3,6.2,8.4,8.9c3.1,2.8,6.5,5.2,10.1,7.4c3.6,2.2,7.4,4,11.3,5.5c4.3,1.6,8.8,2.6,13.3,2.8
		c6.7,0.4,13.4,0.4,20.1,0.1c6.7-0.3,13.4-0.9,20.1-1.9c4.7-0.7,9.2-2,13.5-3.9c6.2-2.8,11.9-6.6,16.8-11.3
		c5-4.8,9.3-10.4,12.6-16.5c3.6-6.6,6.2-13.7,7.8-21.1c1.8-8.1,2.6-16.3,2.6-24.6c0-9.3-0.7-18.7-2.2-27.9
		c-1.2-7.5-3.5-14.9-6.7-21.8c-2.9-6.1-6.8-11.7-11.6-16.6c-4.9-5-10.5-9.1-16.7-12.3c-4.4-2.3-9.1-4-14-5.2
		c-5.8-1.4-11.7-2.3-17.6-2.8c-5.9-0.5-11.8-0.6-17.7-0.3C1090,692,1085.2,692.9,1080.6,694.4L1080.6,694.4z"/>
	<path class="st1" d="M1472.4,637.1c6,1.9,11.9,4,17.7,6.4c5.1,2.2,10.1,4.7,14.8,7.5c4.7,2.8,9.2,6,13.4,9.5
		c4.7,3.8,9.1,7.9,13.3,12.2c13.3,13.7,23.8,29.9,30.7,47.7c7,18.1,10.4,37.3,10.1,56.7c-0.3,19.5-4.4,38.7-11.9,56.6
		c-7.5,17.7-18.4,33.8-32.2,47.3c-13.3,13-29.2,23.1-46.6,29.6c-18.3,6.8-37.7,10.1-57.2,9.8c-19.6-0.3-39-4.1-57.3-11.3
		c-17.6-7-33.5-17.4-46.9-30.8c-6.7-6.7-12.8-14.1-18.1-22.1c-5.1-7.6-9.3-15.8-12.6-24.4c-3.4-8.8-5.9-18-7.3-27.3
		c-1.6-10.2-2.4-20.6-2.3-31c0.1-15.9,2.6-31.7,7.4-46.9c4.7-14.7,11.8-28.5,21-40.9c9.1-12.2,20.2-22.8,32.9-31.3
		c12.8-8.6,26.8-15,41.7-19c6.6-1.8,13.3-2.9,20-3.5c8.2-0.7,16.5-1,24.8-0.8c8.3,0.1,16.5,0.7,24.7,1.7
		C1459.3,633.7,1465.9,635.1,1472.4,637.1L1472.4,637.1z M1394,696.5c-4,1.8-7.7,3.9-11.3,6.3c-3.7,2.5-7.2,5.3-10.4,8.3
		c-3.2,3-6.2,6.3-8.9,9.8c-2.6,3.4-4.9,7-6.9,10.7c-2.6,5-4.5,10.5-5.4,16.1c-1.2,7.7-2,15.4-2.2,23.1c-0.3,7.8,0,15.5,0.8,23.3
		c0.6,5.7,2,11.2,4.3,16.5c3.4,7.6,7.6,14.8,12.7,21.5c4.5,5.9,10,11.1,16.2,15.2c6.1,4.1,12.9,7.1,20,8.9c7.8,2,15.8,3,23.9,3
		c7.4,0,14.7-1,21.9-2.9c6.7-1.8,13.1-4.5,18.9-8.2c5.9-3.7,11.1-8.3,15.6-13.6c4.8-5.7,8.9-11.9,12.2-18.6c1.5-3.2,3-6.4,4.2-9.6
		c1-2.6,1.8-5.2,2.3-7.9c0.6-3,0.9-6,1.1-9c0.2-4.6,0.3-9.1,0.3-13.7c0-6.3-0.4-12.6-1.2-18.8c-0.7-5.2-1.9-10.2-3.6-15.2
		c-1.7-4.7-3.9-9.2-6.5-13.5c-3-4.8-6.4-9.3-10.2-13.6c-5-5.7-11-10.4-17.7-14c-7.2-3.8-15-6.6-23-8.3c-8.1-1.7-16.3-2.2-24.6-1.6
		C1408.6,691.4,1401.1,693.3,1394,696.5L1394,696.5z"/>
	<path class="st1" d="M1927,640.2c6.7,3,13,6.9,18.8,11.5c5.8,4.7,11.1,10,15.6,16c4.7,6.1,8.6,12.7,11.8,19.7
		c3.2,7.2,5.7,14.8,7.3,22.5c0.7,3.5,1.2,7.1,1.4,10.8c0.4,8.4,0.7,16.7,1,25.1c0.3,10.8,0.5,21.6,0.6,32.4
		c0.1,13.4,0.2,26.8,0.2,40.2v93.4h-33.9h-33.9l-0.9-91.6l-0.9-91.6l-8-12.1c-5.1-7.7-12.2-13.8-20.6-17.7c-8.8-4.1-18.4-6-28-5.6
		c-9.8,0.4-19.4,3.1-28,7.9c-8.3,4.6-15.4,11.3-20.4,19.4l-8.5,13.7l-0.9,88.8l-0.9,88.8h-32.4h-32.4V775.6V639.6h32.6h32.6l0.3,7.8
		c0,1.1,0.1,2.2,0.1,3.2c0,1.1,0,2.2,0,3.3c0,1,0,1.9-0.1,2.9c0,0.6-0.1,1.3-0.2,1.9c-0.1,0.9,0.1,1.8,0.6,2.5
		c0.4,0.6,1.2,0.8,1.9,0.6c1.4-0.6,2.7-1.4,3.9-2.4c2.2-1.9,4.3-3.8,6.3-5.8c1.4-1.4,3-2.7,4.6-3.8c2.2-1.5,4.4-3,6.6-4.4
		c2.4-1.5,4.9-2.9,7.4-4.2c2.3-1.2,4.7-2.3,7.1-3.3c3.4-1.4,6.8-2.7,10.3-3.8c2.7-0.9,5.5-1.5,8.3-1.9c3.3-0.4,6.6-0.6,9.9-0.6
		c5.5,0,11,0.2,16.5,0.4c5,0.2,10,0.5,15,0.9c3.6,0.3,7.2,0.8,10.8,1.4c3,0.6,6.1,1.3,9,2.3C1920.9,637.6,1924,638.8,1927,640.2
		L1927,640.2z"/>
	<polygon class="st1" points="1680.3,775.6 1680.3,911.7 1645.6,911.7 1610.9,911.7 1611.6,775.6 1612.4,639.6 1646.4,639.6 
		1680.3,639.6 	"/>
	<path class="st0" d="M580.4,810.4c3.5-10.2,7-20.4,10.5-30.6l106.7-301.2c0.8-2.1,1.5-4.2,2.3-6.3c2.2-6.2,4.5-12.5,6.7-18.7
		c2.3-6.5,4.6-13,6.9-19.5c2.5-7,5-14,7.5-20.9c2.8-7.7,5.5-15.4,8.3-23.1c2.6-7.3,5.2-14.5,7.9-21.8c2-5.5,4-11,6-16.4l12.6-34
		l108.3-0.7c22.5-0.2,45.1-0.3,67.6-0.4c8.2,0,16.4,0.1,24.6,0.4c4.1,0.2,8.2,0.6,12.3,1.2c0.7,0.1,1.3,0.5,1.6,1.1
		c0.3,0.6,0.4,1.3,0.1,1.9c-1.8,4.5-3.5,9-5.1,13.5c-16.8,45.2-33.6,90.4-50.3,135.6c-15.3,41.1-30.5,82.2-45.8,123.4
		c-7.4,20-14.8,40-22.2,60c-27.8,75.5-55.6,151-83.5,226.4c-7.5,20.2-15.4,40.3-23.7,60.3c-4.3,10.3-9.4,20.2-15.3,29.7
		c-4.4,7-10,13.1-16.7,18c-4.8,3.5-9.9,6.5-15.2,9.1c-4.8,2.3-9.9,4.1-15.1,5.2c-5.9,1.3-12,2-18,2.2c-8.3,0.2-16.6,0.1-24.9-0.4
		c-13.1-0.7-26.2-1.2-39.3-1.4c-17.5-0.3-35.1-0.5-52.6-0.5c-10.2,0-20.4,0-30.6,0.1C535.8,935.4,558.1,876.1,580.4,810.4
		L580.4,810.4z"/>
</g>
</svg>
